<svg width="291" height="586" viewBox="0 0 291 586" fill="none" xmlns="http://www.w3.org/2000/svg">
<path d="M0.225001 58C8.49167 50.2666 17.5583 42.9333 27.425 36C37.5583 29.0667 48.4917 22.9333 60.225 17.6C72.225 12.2666 85.025 8.1333 98.625 5.19999C112.492 1.99996 127.425 0.399952 143.425 0.399952C164.492 0.399952 183.958 3.46662 201.825 9.59995C219.958 15.7333 235.558 24.4 248.625 35.6C261.692 46.8 271.958 60.4 279.425 76.4C286.892 92.4 290.625 110.4 290.625 130.4C290.625 150.667 287.558 168.133 281.425 182.8C275.558 197.467 267.958 210.4 258.625 221.6C249.558 232.533 239.558 242.133 228.625 250.4C217.692 258.4 207.425 266 197.825 273.2C188.492 280.4 180.358 287.6 173.425 294.8C166.758 302 162.892 310 161.825 318.8L154.625 380H105.825L101.025 313.6V309.2C101.025 298 103.958 288.133 109.825 279.6C115.958 270.8 123.558 262.667 132.625 255.2C141.958 247.467 151.825 239.867 162.225 232.4C172.892 224.667 182.758 216.267 191.825 207.2C201.158 197.867 208.758 187.333 214.625 175.6C220.758 163.867 223.825 150 223.825 134C223.825 122.533 221.558 112.133 217.025 102.8C212.492 93.4666 206.358 85.6 198.625 79.2C190.892 72.5333 181.692 67.4666 171.025 64C160.625 60.5333 149.425 58.8 137.425 58.8C121.158 58.8 107.158 60.8 95.425 64.8C83.9583 68.8 74.225 73.2 66.225 78C58.225 82.8 51.6917 87.2 46.625 91.2C41.825 95.2 37.825 97.2 34.625 97.2C27.9583 97.2 22.7583 94.1333 19.025 88L0.225001 58ZM78.625 536C78.625 529.067 79.825 522.533 82.225 516.4C84.8917 510.267 88.3583 504.933 92.625 500.4C97.1583 495.867 102.492 492.267 108.625 489.6C114.758 486.933 121.292 485.6 128.225 485.6C135.158 485.6 141.692 486.933 147.825 489.6C153.958 492.267 159.292 495.867 163.825 500.4C168.358 504.933 171.825 510.267 174.225 516.4C176.892 522.533 178.225 529.067 178.225 536C178.225 543.2 176.892 549.867 174.225 556C171.825 561.867 168.358 567.067 163.825 571.6C159.292 576.133 153.958 579.6 147.825 582C141.692 584.667 135.158 586 128.225 586C121.292 586 114.758 584.667 108.625 582C102.492 579.6 97.1583 576.133 92.625 571.6C88.3583 567.067 84.8917 561.867 82.225 556C79.825 549.867 78.625 543.2 78.625 536Z" fill="black"/>
</svg>
